<?xml version="1.0" encoding="UTF-8" standalone="no"?>
<!-- Created with Inkscape (http://www.inkscape.org/) -->

<svg
   width="100.68403mm"
   height="123.17565mm"
   viewBox="0 0 100.68403 123.17565"
   version="1.1"
   id="svg265"
   sodipodi:docname="Logo_preto_branco.svg"
   inkscape:version="1.2.2 (732a01da63, 2022-12-09)"
   xmlns:inkscape="http://www.inkscape.org/namespaces/inkscape"
   xmlns:sodipodi="http://sodipodi.sourceforge.net/DTD/sodipodi-0.dtd"
   xmlns="http://www.w3.org/2000/svg"
   xmlns:svg="http://www.w3.org/2000/svg">
  <sodipodi:namedview
     id="namedview267"
     pagecolor="#ffffff"
     bordercolor="#000000"
     borderopacity="0.25"
     inkscape:showpageshadow="2"
     inkscape:pageopacity="0.0"
     inkscape:pagecheckerboard="0"
     inkscape:deskcolor="#d1d1d1"
     inkscape:document-units="mm"
     showgrid="false"
     inkscape:zoom="1.0645786"
     inkscape:cx="-274.28693"
     inkscape:cy="356.0094"
     inkscape:window-width="2560"
     inkscape:window-height="1025"
     inkscape:window-x="1912"
     inkscape:window-y="-8"
     inkscape:window-maximized="1"
     inkscape:current-layer="layer1" />
  <defs
     id="defs262" />
  <g
     inkscape:label="Camada 1"
     inkscape:groupmode="layer"
     id="layer1"
     transform="translate(-34.013017,-37.177871)">
    <path
       style="fill:#000000;stroke-width:0.264583"
       d="m 81.444745,159.22904 c 0.09473,-0.61846 0.217882,-1.17677 0.273672,-1.24068 0.05579,-0.0639 -0.387588,-0.61448 -0.985282,-1.22348 l -1.086712,-1.10729 1.431345,-0.17883 c 1.375561,-0.17187 1.453899,-0.22525 2.009984,-1.36985 0.318252,-0.65505 0.67559,-1.13109 0.794086,-1.05786 0.118494,0.0732 0.427321,0.60301 0.686282,1.17729 0.44541,0.98773 0.549605,1.05397 1.92932,1.22635 l 1.458481,0.18222 -0.996005,1.02001 c -0.95236,0.97531 -0.98906,1.07865 -0.837504,2.3583 0.08718,0.73607 0.107765,1.3383 0.04575,1.3383 -0.06201,0 -0.630325,-0.25146 -1.262917,-0.55879 l -1.150167,-0.5588 -1.095328,0.5588 c -0.60243,0.30733 -1.16101,0.55879 -1.241287,0.55879 -0.08028,0 -0.06845,-0.50602 0.02627,-1.12448 z m -5.45765,-8.27531 c -1.346687,-1.04113 -6.239158,-3.51647 -8.927142,-4.51667 -15.057273,-5.60286 -25.173892,-18.68029 -26.792298,-34.63355 -0.16233,-1.60016 -0.270214,-3.92188 -0.239739,-5.15937 0.037,-1.50229 -0.09301,-2.73358 -0.391203,-3.7052 -0.586986,-1.9126 -0.206634,-4.256407 0.949791,-5.852805 0.948643,-1.309563 1.228318,-1.135862 1.509699,0.937654 0.243047,1.791028 -0.06949,4.055691 -0.78201,5.666461 -0.427903,0.96734 -0.516681,1.77147 -0.516681,4.67999 0,7.96952 2.273594,15.41912 6.734156,22.06498 1.707978,2.54474 4.849403,6.16912 4.489546,5.17976 -0.10586,-0.29104 -0.244015,-1.30307 -0.30701,-2.24896 -0.100547,-1.5097 -0.02117,-1.89756 0.649783,-3.175 0.420375,-0.80036 0.877157,-1.45521 1.015068,-1.45521 0.137912,0 0.404781,0.59531 0.59304,1.32292 0.422309,1.63217 0.208672,4.06239 -0.498136,5.66654 l -0.514911,1.16862 0.599961,0.63939 c 0.760685,0.81068 4.267605,3.50566 4.561835,3.50566 0.12165,0 0.02727,-0.21427 -0.209733,-0.47616 -0.629923,-0.69606 -1.239464,-2.60291 -1.232789,-3.85659 0.0032,-0.60017 0.249746,-1.62699 0.547886,-2.28184 0.517914,-1.13755 0.559287,-1.16724 0.928259,-0.66605 1.00925,1.3709 1.507164,5.28494 0.881615,6.93026 -0.251737,0.66212 -0.202528,0.80599 0.455017,1.3303 0.405506,0.32334 1.812444,1.11565 3.126534,1.7607 2.264341,1.1115 4.019336,1.83851 9.536525,3.95051 2.517632,0.96376 6.250501,2.7753 7.140229,3.46511 0.526216,0.40797 0.526031,0.41031 -0.03307,0.41868 -0.309232,0.005 -0.904545,0.0651 -1.322917,0.13438 -0.580885,0.0962 -1.042091,-0.0916 -1.951302,-0.79451 z m 12.7,0.69511 -0.926042,-0.16835 1.720649,-0.97371 c 2.058104,-1.16466 3.955661,-1.99074 9.921018,-4.31901 2.47385,-0.96553 5.45969,-2.27596 6.6352,-2.91205 9.00756,-4.87417 16.25694,-13.70544 19.10273,-23.27116 1.8294,-6.14928 2.32008,-13.81878 1.05571,-16.50103 -0.72474,-1.53746 -0.97865,-5.682703 -0.41408,-6.760208 l 0.38518,-0.735158 0.69973,0.831583 c 0.38486,0.457372 0.84355,1.332188 1.01933,1.944034 0.40918,1.424299 0.38333,4.155869 -0.0469,4.959829 -0.21756,0.40652 -0.35772,2.09273 -0.40475,4.86953 -0.0428,2.52697 -0.24686,5.15871 -0.50372,6.49663 -2.17972,11.3537 -8.15604,20.51687 -17.45555,26.7637 -2.79867,1.87997 -4.44554,2.73437 -8.27926,4.29529 -4.263244,1.73581 -7.292572,3.22997 -9.20987,4.54261 -0.944337,0.64651 -1.864648,1.15981 -2.045136,1.14065 -0.180486,-0.0191 -0.744876,-0.11059 -1.254199,-0.20318 z m -30.554806,-2.7077 c -1.55027,-0.3628 -1.645478,-0.62826 -0.497175,-1.38629 1.918425,-1.2664 5.390742,-2.02864 7.071608,-1.55234 l 0.758172,0.21484 -0.664525,0.78975 c -1.339731,1.59217 -4.371409,2.4715 -6.66808,1.93404 z m 48.414181,0.0549 c -1.7766,-0.30934 -4.10104,-1.75807 -4.10104,-2.55601 0,-0.49583 1.87756,-0.70961 3.53741,-0.40277 1.78609,0.33017 3.93818,1.22426 4.53546,1.88425 0.40832,0.45118 0.40514,0.50055 -0.0473,0.73547 -0.72277,0.3753 -2.72364,0.54817 -3.92455,0.33906 z m -41.871146,-5.11283 c -0.457734,-0.47294 -1.01687,-1.30256 -1.242528,-1.84359 -0.450125,-1.07921 -0.546161,-3.81571 -0.155586,-4.43333 0.849223,-1.34288 3.33669,4.38344 2.81209,6.47362 -0.217001,0.86459 -0.413232,0.83729 -1.413976,-0.1967 z m 36.846706,0.0782 c -0.32441,-1.47702 0.99862,-5.36627 2.19287,-6.44629 0.52371,-0.47362 0.53604,-0.46233 0.78872,0.72239 0.26798,1.25648 0.0455,3.14093 -0.49516,4.1943 -0.35419,0.69008 -1.8434,2.31132 -2.12308,2.31132 -0.10541,0 -0.26892,-0.35177 -0.36335,-0.78172 z m -50.189133,0.27288 c -0.390175,-0.12617 -0.967385,-0.4101 -1.282689,-0.63095 l -0.573283,-0.40154 0.654915,-0.42912 c 1.011356,-0.66267 2.267879,-0.93996 4.25927,-0.93996 1.978943,0 3.869979,0.44097 3.867095,0.90177 -0.0011,0.15887 -0.427191,0.57858 -0.947103,0.9327 -0.776832,0.52911 -1.330542,0.65745 -3.107047,0.72018 -1.188963,0.042 -2.480984,-0.0269 -2.871158,-0.15308 z m 59.851653,-0.15868 c -0.96505,-0.43542 -1.85996,-1.13586 -1.85996,-1.45577 0,-0.45077 2.48395,-0.84756 4.56044,-0.72847 1.97261,0.11312 4.17081,0.77521 4.17081,1.25622 0,0.0872 -0.38433,0.38557 -0.85408,0.66305 -1.16801,0.68997 -4.72785,0.84673 -6.01721,0.26497 z m -3.12503,-3.23508 c -0.10457,-0.25466 -0.18202,-1.47505 -0.17211,-2.71198 0.0144,-1.79557 0.14381,-2.50985 0.64201,-3.54308 l 0.62398,-1.29412 0.46797,0.57792 c 1.04293,1.28797 0.95063,4.36451 -0.18931,6.3098 -0.71144,1.21408 -1.07389,1.38875 -1.37254,0.66146 z m -61.442887,-2.16544 c -1.051483,-0.31985 -2.207826,-0.97659 -2.724258,-1.54724 -0.463542,-0.51221 -0.454017,-0.5333 0.370835,-0.82084 1.176062,-0.40998 3.285516,-0.36841 5.084606,0.10019 1.57821,0.41108 2.826779,1.07392 2.826779,1.5007 0,0.77932 -3.795665,1.30326 -5.557962,0.76719 z m 69.653277,-0.17211 c -0.47295,-0.24229 -0.8599,-0.5513 -0.8599,-0.6867 0,-0.13539 0.65603,-0.54651 1.45784,-0.91359 1.77015,-0.8104 4.85152,-1.1199 6.32109,-0.6349 0.96711,0.31918 0.97726,0.33634 0.50658,0.8568 -1.40576,1.55444 -5.57228,2.32786 -7.42561,1.37839 z m -2.55269,-2.60385 c -0.90556,-1.90833 -1.09332,-5.17165 -0.37791,-6.56798 0.37779,-0.73735 0.65449,-0.55526 1.38558,0.91185 0.84844,1.7026 0.91105,3.79035 0.16308,5.43815 -0.28073,0.61847 -0.56221,1.12448 -0.6255,1.12448 -0.0633,0 -0.30866,-0.40793 -0.54525,-0.9065 z m -35.74575,-0.17065 c -10.840694,-1.28817 -20.396134,-7.59367 -25.683694,-16.94832 -1.428017,-2.52643 -2.443551,-5.06661 -3.371347,-8.43286 l -0.838624,-3.04271 -0.07788,-29.791392 c -0.06746,-25.80545 -0.02641,-29.834115 0.306819,-30.110671 0.296082,-0.245729 7.825602,-0.314372 32.685653,-0.297987 34.489543,0.02273 33.159743,0.07281 31.757703,-1.19602 -0.59977,-0.542787 -1.70168,-0.628708 -3.95467,-0.308364 l -1.4552,0.20691 1.71979,-0.876377 c 0.94589,-0.482007 2.35556,-1.379048 3.13261,-1.993424 1.81925,-1.438383 3.00725,-1.517692 4.40117,-0.293817 0.51568,0.452776 1.00897,1.10762 1.09622,1.455209 0.0872,0.347588 0.21674,0.631978 0.28776,0.631978 0.071,0 0.67263,-0.478388 1.33688,-1.063083 0.91406,-0.804592 1.76028,-1.227841 3.48018,-1.740685 4.44165,-1.32442 6.27553,-2.025124 8.99763,-3.437893 1.51602,-0.786818 2.81264,-1.374357 2.88135,-1.305639 0.3744,0.374401 -3.86171,5.118137 -6.6961,7.498506 l -1.32292,1.111009 2.9771,-0.06809 c 1.63741,-0.03745 2.97686,-0.03954 2.97657,-0.0046 -2.7e-4,0.03489 -0.62562,0.473739 -1.3896,0.975214 -1.83509,1.204542 -4.06874,1.919518 -7.10557,2.274451 -3.1701,0.370496 -3.41162,0.447799 -3.41162,1.091943 0,0.293119 0.58314,2.160331 1.29588,4.149358 1.22555,3.42016 2.41349,8.048752 2.40393,9.366482 -0.004,0.495239 -0.10747,0.418733 -0.5953,-0.438427 -0.32503,-0.571098 -0.94815,-1.235454 -1.38471,-1.476349 -0.67239,-0.371017 -0.83734,-0.677497 -1.07882,-2.004351 -0.3747,-2.058943 -0.84537,-3.435977 -1.30469,-3.817194 -0.31915,-0.264866 -0.38586,3.279127 -0.469,24.915815 -0.0869,22.614158 -0.14343,25.416278 -0.54625,27.076688 -1.86085,7.67052 -4.91965,13.10372 -10.31208,18.31686 -5.02821,4.86103 -11.125643,7.97245 -18.039165,9.20511 -2.887353,0.51481 -9.797682,0.71763 -12.7,0.37275 z m 13.096875,-2.47513 c 11.638595,-2.50726 20.976305,-10.6723 24.777325,-21.66566 0.36167,-1.04602 0.90791,-3.03294 1.21388,-4.41539 0.53984,-2.43912 0.55933,-3.27076 0.6584,-28.089359 l 0.10209,-25.575818 -1.47016,-1.940848 c -0.80859,-1.067467 -1.59366,-2.089676 -1.74461,-2.271578 -0.21681,-0.261262 -7.02451,-0.330729 -32.410899,-0.330729 H 50.057929 v 28.281188 c 0,30.325254 -0.01484,29.945954 1.34617,34.408804 0.694275,2.27658 2.568459,6.19056 3.910912,8.16741 5.130054,7.55434 13.156848,12.52287 22.306222,13.80738 2.587479,0.36327 11.124575,0.12494 13.447112,-0.3754 z m -12.303125,-2.1775 c -7.025092,-0.83414 -12.940943,-3.64442 -17.949272,-8.52669 -4.453404,-4.34131 -6.904424,-8.80232 -8.666583,-15.77373 -0.496166,-1.96292 -0.65558,-54.216573 -0.168299,-55.165628 0.18679,-0.363802 0.753231,-0.803566 1.25876,-0.977255 0.68975,-0.236982 8.333457,-0.319521 30.627121,-0.330729 32.361273,-0.01627 31.234413,-0.06744 31.809333,1.444702 0.34951,0.919297 0.34009,49.27876 -0.0101,51.9862 -1.83493,14.18511 -13.05853,25.4087 -27.243634,27.24364 -1.873485,0.24234 -7.928792,0.30473 -9.657291,0.0995 z m 8.870841,-4.07372 c 1.027951,-3.83146 2.330199,-6.34513 4.289499,-8.27984 1.714429,-1.69291 2.331755,-2.04574 8.19257,-4.6824 4.04666,-1.8205 5.37009,-2.79305 5.81317,-4.27193 0.28432,-0.94896 0.26699,-1.11194 -0.15071,-1.41737 -0.43776,-0.3201 -0.39043,-0.43359 0.65289,-1.56546 1.65109,-1.79122 1.3018,-1.94441 -2.85374,-1.25164 -4.391986,0.7322 -7.458132,1.73619 -9.515468,3.11578 l -1.654773,1.10965 0.68231,-0.89456 c 0.829294,-1.08726 3.489278,-2.90526 4.611394,-3.15172 0.96575,-0.21211 2.698197,-2.57492 1.9964,-2.72281 -0.486399,-0.1025 -5.894644,2.09942 -7.235512,2.94587 -1.665656,1.05148 -2.822671,2.57135 -3.767355,4.94885 -1.701474,4.28211 -3.652012,7.66483 -4.419679,7.66483 -0.211749,0 0.03295,-0.53523 0.615233,-1.34573 0.531749,-0.74016 1.733089,-3.15117 2.669648,-5.35782 1.977753,-4.65981 2.073701,-4.93811 1.70252,-4.93811 -0.728583,0 -5.455277,-3.55082 -7.730876,-5.80765 -3.082587,-3.057156 -3.559972,-3.954006 -3.325077,-6.246724 0.09309,-0.9086 0.2975,-2.019885 0.454242,-2.469523 0.258503,-0.741542 0.182478,-0.979839 -0.818036,-2.564037 -0.606663,-0.960586 -1.025475,-1.824072 -0.930691,-1.918856 0.09479,-0.09478 0.654312,0.362733 1.243394,1.016706 4.471601,4.964181 5.857483,6.093288 6.954985,5.666364 0.64846,-0.252251 2.783462,-2.673096 2.77767,-3.149557 -0.0019,-0.148188 -0.41475,-0.535948 -0.917665,-0.861687 -0.502914,-0.32574 -1.10273,-0.956464 -1.332923,-1.401607 l -0.418531,-0.80935 1.005469,0.643517 c 0.553006,0.353933 1.402073,0.715719 1.88681,0.803968 0.780116,0.142021 0.986375,0.04345 1.795825,-0.858223 0.871765,-0.97109 0.966439,-1.009174 2.026783,-0.815274 0.611767,0.111868 1.194297,0.152723 1.294513,0.09079 0.100214,-0.06194 0.258945,-0.795345 0.352732,-1.629796 0.538861,-4.794406 1.382673,-7.866925 2.418091,-8.804846 l 0.717386,-0.649838 -0.558557,0.809887 c -0.307205,0.445439 -0.644014,1.150382 -0.748464,1.566537 l -0.189907,0.75665 1.218404,-0.87499 c 0.67012,-0.481246 1.454909,-1.126744 1.743977,-1.434441 0.504386,-0.536893 2.288578,-5.133634 2.075348,-5.346864 -0.0569,-0.0569 -0.689643,0.178932 -1.406093,0.524076 -2.350452,1.132318 -3.913973,1.54459 -6.329714,1.669023 -2.017027,0.103897 -2.785941,0.01244 -5.027083,-0.597887 -3.495236,-0.951859 -4.982644,-1.085106 -5.840238,-0.523192 -1.803382,1.181624 -2.153518,3.48592 -1.029954,6.778297 0.787175,2.306656 0.878332,3.803065 0.299818,4.921784 -0.475216,0.918969 -1.852832,1.672995 -3.056583,1.672995 -1.517407,0 -3.352385,-2.398146 -1.984378,-2.593396 0.438883,-0.06264 0.5945,0.09516 0.721863,0.73197 0.203687,1.018442 1.126249,1.433894 2.286198,1.029534 0.44508,-0.155155 0.925785,-0.499875 1.068234,-0.766043 0.451107,-0.842902 0.281805,-2.741835 -0.425445,-4.771869 -0.927745,-2.662939 -0.955799,-4.415488 -0.09015,-5.632119 0.364631,-0.512474 1.112322,-1.288876 1.661539,-1.725338 L 82.105942,72.543113 81.054863,72.2282 c -1.497941,-0.448794 -2.286254,-0.151119 -3.91614,1.478767 -4.252164,4.252164 -5.256363,12.309877 -2.382533,19.117514 0.826375,1.957548 3.833735,7.432329 4.53862,8.262369 0.629372,0.74113 1.909516,3.56587 2.278221,5.02709 0.460616,1.82546 0.456891,8.09979 -0.0064,10.84791 -0.769308,4.56294 -2.172187,8.66381 -3.695819,10.80355 -0.907042,1.27382 -0.827569,1.48327 0.629864,1.65997 0.727604,0.0882 2.928157,0.14776 4.890119,0.1323 l 3.567203,-0.0281 0.678103,-2.52746 z M 87.455242,80.450328 c -0.5228,-0.210873 -2.434889,-2.646807 -2.077608,-2.646807 0.08555,0 0.656814,0.259977 1.269481,0.577726 0.765027,0.396769 1.613075,0.583237 2.707481,0.595312 l 1.593546,0.0176 -0.85712,0.859896 c -0.866601,0.869405 -1.566241,1.027684 -2.63578,0.596286 z m 5.520431,-2.866644 c -0.327509,-0.939493 -1.355572,-1.341715 -4.117147,-1.610812 l -1.891223,-0.184288 2.571155,-0.213979 c 2.73998,-0.228034 3.764002,-0.09834 4.506449,0.570746 0.62085,0.559501 0.58356,0.923523 -0.166828,1.628476 l -0.629851,0.591712 z m -0.319828,50.848646 c 2.626373,-0.74507 6.476272,-2.53082 8.674495,-4.0236 1.2246,-0.83161 1.61176,-1.268 1.85997,-2.09643 0.71553,-2.38822 0.28928,-3.83431 -1.62751,-5.52154 -2.151667,-1.89397 -2.227131,-1.90523 -4.728216,-0.70508 -2.596187,1.24577 -4.588089,3.01361 -5.903738,5.23965 -0.85934,1.45397 -2.179095,5.075 -2.638719,7.23989 l -0.188473,0.88773 1.151615,-0.19131 c 0.633389,-0.10522 2.163649,-0.47841 3.400576,-0.82931 z m -16.366927,-0.68918 c 2.582744,-4.15488 3.93151,-9.74423 3.93151,-16.29233 0,-3.74814 -0.292306,-5.37269 -1.388718,-7.71813 -0.684604,-1.46451 -1.482384,-2.38747 -5.374389,-6.217711 -5.867828,-5.774708 -7.08701,-7.651019 -7.901368,-12.160136 l -0.284774,-1.576803 -1.251924,2.661558 c -2.591062,5.50854 -2.680713,7.929988 -0.500885,13.528722 1.90273,4.88703 2.468166,8.20508 2.512653,14.74458 0.03178,4.67105 -0.0093,5.13951 -0.579581,6.61458 -0.337579,0.87312 -0.635235,1.82108 -0.661458,2.10656 -0.0862,0.93839 4.123235,3.39088 8.022111,4.67381 1.236927,0.40701 2.368021,0.74436 2.513542,0.74967 0.14552,0.005 0.578998,-0.49616 0.963281,-1.11437 z m -12.397086,-6.79952 c 0.726866,-2.16482 0.84687,-5.68771 0.338426,-9.9349 -0.556845,-4.65149 -1.151131,-7.20781 -2.526654,-10.8684 -2.279105,-6.065233 -2.141144,-7.866601 1.107032,-14.454578 1.168863,-2.370695 2.45414,-5.272137 2.856169,-6.447649 0.687353,-2.009781 0.900893,-3.03244 1.606288,-7.692665 0.701424,-4.633987 3.797731,-8.271904 8.208902,-9.644814 1.645449,-0.512122 4.738433,-0.687763 4.738433,-0.269081 0,0.489944 -0.723932,0.76233 -2.38125,0.895966 -0.945885,0.07627 -2.286405,0.385643 -2.97893,0.687496 -1.502582,0.654936 -3.703992,2.646069 -4.564351,4.12837 -0.548722,0.945388 -1.452552,3.816634 -1.452552,4.614403 0,0.16257 0.660588,-0.242475 1.467974,-0.9001 1.750195,-1.425551 3.418756,-2.305156 5.545646,-2.92346 1.277736,-0.371449 2.203783,-0.427281 5.01578,-0.302406 3.585655,0.159232 5.503627,0.5495 10.186956,2.072841 4.746334,1.543833 7.270276,1.272741 8.761365,-0.941049 0.597624,-0.887272 0.664914,-1.177181 0.472264,-2.034593 -0.731802,-3.257002 -2.59268,-6.417545 -5.531383,-9.394573 -2.323058,-2.353352 -4.186331,-3.63986 -6.719981,-4.639852 -1.756783,-0.693375 -2.114774,-0.737979 -5.991902,-0.746541 -3.483583,-0.0077 -4.386895,0.07681 -5.820833,0.544518 -4.124336,1.345245 -7.205311,3.598159 -9.366575,6.849163 -1.438439,2.163723 -1.906535,3.202778 -4.233916,9.398254 -2.00225,5.329981 -2.792642,7.005269 -5.554892,11.773958 -2.054474,3.546803 -3.126399,5.988849 -3.601805,8.205581 -0.443024,2.065753 -0.149818,15.730951 0.385964,17.988171 1.01066,4.25788 2.725869,8.04535 5.032449,11.1125 1.638956,2.17938 3.903625,4.52859 4.257548,4.41649 0.149262,-0.0473 0.483983,-0.71915 0.743828,-1.49305 z m 45.301208,-4.51094 c 2.03669,-3.05044 3.38955,-6.06194 4.32418,-9.62571 l 0.70217,-2.67742 V 78.200396 52.27123 l -12.30313,-0.06165 -12.303124,-0.06164 1.665137,0.898903 c 2.124139,1.146691 3.111201,1.905609 4.929301,3.789966 3.131691,3.245818 4.846436,6.10026 5.737976,9.551656 0.28732,1.112293 0.5016,2.617664 0.47619,3.345268 -0.0254,0.727604 0.0364,1.739635 0.13736,2.248958 0.10096,0.509323 0.0696,1.841479 -0.0697,2.960346 -0.19058,1.530853 -0.16196,2.513044 0.11566,3.96875 0.70075,3.674465 0.40308,5.625968 -1.25141,8.204266 l -0.81195,1.265328 0.68728,0.816787 c 0.84397,1.003001 0.90539,2.294379 0.14781,3.10755 -0.82301,0.883396 -2.635529,0.662963 -2.635529,-0.320527 0,-0.146992 0.14111,-0.123473 0.3175,0.05292 1.002669,1.002668 2.418329,-0.287631 1.907929,-1.738966 -0.4938,-1.404117 -2.468226,-1.445609 -3.83328,-0.08055 -0.885177,0.885174 -1.159987,1.800593 -0.921759,3.070455 0.337164,1.797249 2.824224,3.808368 4.728039,3.823253 0.47746,0.0037 0.67813,0.111122 0.5612,0.300329 -0.27368,0.442814 -2.772445,0.151386 -3.974111,-0.4635 -0.583465,-0.298556 -1.399323,-1.067218 -1.871324,-1.76307 L 94.81861,93.95232 93.935663,94.779508 c -0.834268,0.781584 -0.85377,0.839851 -0.353777,1.056907 0.33409,0.145034 -0.06867,0.176268 -1.092517,0.08472 -1.712053,-0.153077 -1.950191,-0.0053 -1.950191,1.210299 0,0.308896 -0.13535,0.447284 -0.355023,0.36299 -0.437846,-0.168018 -2.076773,1.606458 -2.808518,3.040796 -0.855257,1.67645 -0.723254,2.74658 0.502878,4.07678 0.573926,0.62263 1.343221,1.29246 1.709539,1.48852 0.600022,0.32111 0.752282,0.29078 1.536184,-0.30606 1.14073,-0.86853 2.63257,-1.6177 5.73627,-2.88067 1.398217,-0.56897 3.065176,-1.40088 3.704352,-1.84868 l 1.16215,-0.8142 -0.1491,1.11163 c -0.082,0.6114 -0.45044,1.69245 -0.81875,2.40235 -0.3683,0.70989 -0.56939,1.29071 -0.44686,1.29071 0.31681,0 5.39629,-1.05323 5.44178,-1.12835 0.0207,-0.0343 0.32133,-0.47226 0.66796,-0.97337 0.95767,-1.3844 0.89459,-3.892456 -0.1459,-5.801451 -0.79928,-1.466437 -1.61081,-2.219066 -3.42992,-3.180953 -1.71505,-0.90687 -0.41466,-0.635254 1.59105,0.332322 2.09221,1.009309 4.08653,2.879876 4.93162,4.625602 0.67149,1.3871 0.56615,3.45141 -0.32978,6.46304 -1.26348,4.24711 -3.06347,6.49828 -6.5154,8.14856 -1.04383,0.49902 -1.87542,0.9831 -1.84797,1.07574 0.0274,0.0926 0.58568,0.57284 1.24052,1.06713 0.65484,0.49429 1.58974,1.49006 2.07756,2.21283 0.79672,1.18045 0.87138,1.4471 0.73406,2.62161 l -0.15287,1.3075 1.46991,-1.43979 c 0.80845,-0.79188 2.2251,-2.57088 3.14812,-3.95333 z M 73.904234,94.539242 c -1.82104,-3.607461 -2.533282,-7.530676 -2.101638,-11.576346 0.439597,-4.120173 1.833475,-7.129454 4.50383,-9.723437 l 1.838521,-1.785938 H 77.12161 c -2.670302,0 -5.588024,1.372757 -7.15799,3.367755 -3.355152,4.263487 -3.622104,11.279851 -0.605645,15.918423 0.784212,1.205928 5.053066,5.661406 5.242637,5.471832 0.05402,-0.05402 -0.259352,-0.806548 -0.696378,-1.672289 z M 55.229136,81.253273 c 2.401506,-4.059619 3.998769,-7.468868 5.954828,-12.710168 1.937544,-5.191694 3.495022,-8.304501 5.209318,-10.411455 1.499431,-1.842876 4.832318,-4.147262 7.555706,-5.224076 l 1.905815,-0.753552 -11.244791,0.05861 -11.244792,0.0586 -0.06821,16.119602 c -0.03752,8.86578 -0.02177,16.069061 0.03499,16.007291 0.05676,-0.06177 0.910473,-1.476954 1.897134,-3.14485 z m 41.130875,-7.998336 c 0.916853,-0.386895 0.898475,-0.392382 -1.852083,-0.553138 -3.148756,-0.184026 -4.774462,-0.626327 -10.186458,-2.771404 -3.429976,-1.359493 -3.87064,-1.46975 -5.953125,-1.489528 -1.898991,-0.01802 -2.480347,0.08646 -3.735919,0.671515 -1.515629,0.706229 -3.485322,2.290924 -3.967618,3.192103 -0.233585,0.436457 -0.139703,0.419693 0.741484,-0.132395 1.976266,-1.238186 3.494014,-1.646116 6.036011,-1.622311 2.124448,0.0199 2.823522,0.16882 6.482292,1.380945 2.255573,0.747257 4.577291,1.476676 5.159375,1.620933 1.489326,0.369096 6.148467,0.179093 7.276041,-0.29672 z m 2.22839,-1.342747 c 1.408422,-0.802034 1.585049,-1.389317 0.239395,-0.795986 -0.716473,0.31591 -1.708915,0.442098 -3.393826,0.431522 -2.410392,-0.01513 -3.650938,-0.253277 -7.920503,-1.520489 -3.266499,-0.969502 -3.404468,-0.732337 -0.251643,0.43257 5.910024,2.183644 9.282938,2.616145 11.326577,1.452383 z m -56.343549,60.13469 c -0.748777,-0.29621 -1.836725,-1.04196 -2.487629,-1.70518 l -1.15684,-1.17874 0.706485,-0.17731 c 1.721392,-0.43205 5.393296,0.68897 7.311477,2.23216 0.525238,0.42255 0.594159,0.59966 0.334669,0.85999 -0.569624,0.57146 -3.229573,0.55399 -4.708162,-0.0309 z m 78.721408,0.23879 -0.66146,-0.28574 1.03114,-0.90002 c 1.72523,-1.50585 5.95079,-2.71883 7.1444,-2.05085 0.38728,0.21673 0.32404,0.36937 -0.50805,1.22614 -0.52272,0.53823 -1.44621,1.23154 -2.0522,1.54069 -1.26439,0.64504 -3.95701,0.90039 -4.95383,0.46978 z m -72.995976,-2.48588 c -0.501131,-1.99017 0.535133,-5.13617 2.010167,-6.10265 0.556397,-0.36456 0.632068,-0.36231 0.780012,0.0232 0.497994,1.29775 -0.55278,5.5465 -1.679688,6.79172 -0.628992,0.69503 -0.780611,0.59778 -1.110491,-0.71229 z m 70.233236,0.19279 c -1.05826,-1.6065 -1.77841,-5.04154 -1.31185,-6.25737 0.39678,-1.03399 2.13597,1.18747 2.74881,3.51105 0.23119,0.87654 0.23004,1.46864 -0.005,2.44739 -0.17036,0.71012 -0.41523,1.29112 -0.54417,1.29112 -0.12895,0 -0.52856,-0.44648 -0.88803,-0.99219 z m -78.861216,-5.18799 c -1.415018,-0.66185 -2.849568,-1.96293 -3.46913,-3.14638 l -0.380918,-0.72761 1.131274,0.003 c 0.638844,0.002 1.734468,0.28342 2.51701,0.64774 1.488319,0.69292 4.038222,2.89471 4.038222,3.48692 0,0.60144 -2.3295,0.44158 -3.836458,-0.26326 z m 85.063536,0.25157 c 0,-0.54177 2.45503,-2.66307 3.88085,-3.3533 0.67363,-0.32609 1.81947,-0.65004 2.54632,-0.71988 l 1.32154,-0.12698 -0.62844,1.11816 c -0.68283,1.21493 -2.48993,2.66781 -3.9186,3.1505 -1.29949,0.43904 -3.20167,0.39835 -3.20167,-0.0685 z m -79.72312,-0.59313 c -0.266097,-0.26609 -0.220385,-2.20811 0.07633,-3.24269 0.523025,-1.82368 2.831653,-4.18571 3.468563,-3.5488 0.372946,0.37294 -0.154691,2.54868 -0.990481,4.0843 -0.748922,1.37602 -2.271713,2.98989 -2.554409,2.70719 z m 77.02386,-0.83414 c -1.21,-1.33934 -2.12113,-3.28616 -2.2718,-4.85422 -0.0971,-1.01029 -0.0403,-1.28365 0.26661,-1.28365 0.60097,0 2.33244,1.81672 2.87954,3.02133 0.50775,1.11798 0.68184,3.71546 0.26622,3.97233 -0.12967,0.0801 -0.64293,-0.30497 -1.14057,-0.85579 z m -83.124292,-5.99716 c -1.909929,-0.6808 -3.953433,-2.86446 -4.526619,-4.83706 -0.394565,-1.35788 2.020388,-0.45052 4.267862,1.60354 1.200512,1.0972 2.473981,2.88807 2.473981,3.47914 0,0.25691 -1.169101,0.12728 -2.215224,-0.24562 z m 88.204802,0.17567 c 0,-0.47924 1.57061,-2.63005 2.58948,-3.54607 1.25687,-1.12998 2.95988,-2.06198 3.76781,-2.06198 0.45634,0 0.52413,0.10806 0.37347,0.59532 -0.64351,2.0812 -2.14307,3.79759 -4.08492,4.67557 -1.20408,0.54441 -2.64584,0.72813 -2.64584,0.33716 z m -84.664076,-1.04398 c 0.0063,-1.76653 2.085493,-4.70087 3.784951,-5.34159 1.159804,-0.43726 1.298967,-0.36416 1.102337,0.57909 -0.283041,1.35777 -1.321832,2.94432 -2.795024,4.26885 -1.57108,1.41253 -2.095969,1.53637 -2.092264,0.49365 z m 82.150526,0.24156 c -1.53397,-0.93549 -3.82376,-4.24022 -3.83386,-5.53323 -0.006,-0.77904 1.73846,-0.0764 3.13609,1.263 0.79741,0.76423 1.88246,3.0822 1.88582,4.02867 0.003,0.85733 -0.13297,0.88498 -1.18805,0.24156 z m -85.623103,-7.0348 c -2.275655,-0.78451 -4.187005,-3.14675 -4.408128,-5.448 -0.115699,-1.20411 -0.08806,-1.27662 0.434578,-1.13995 0.853536,0.22321 2.78765,2.04233 3.725754,3.50423 0.757899,1.18108 1.507392,3.1161 1.28968,3.32964 -0.04699,0.0461 -0.515837,-0.0646 -1.041884,-0.24592 z m 2.554803,-0.4828 c 0.366416,-1.21997 1.342126,-2.68884 2.294589,-3.45438 0.990105,-0.7958 3.443308,-1.62765 3.599611,-1.22058 0.337515,0.87901 -2.137484,3.6964 -4.148418,4.7223 -1.446369,0.73789 -1.977303,0.72349 -1.745782,-0.0473 z m 83.59748,0.15042 c -1.41707,-0.75643 -2.71779,-1.92055 -3.5504,-3.17758 -0.44838,-0.67691 -0.81523,-1.32941 -0.81523,-1.44998 0,-0.40185 1.59572,-0.22584 2.59023,0.28572 1.55314,0.79889 2.77121,2.32418 3.34721,4.19142 0.22563,0.73142 -0.3756,0.78895 -1.57181,0.15042 z m 3.28097,-0.25708 c 0.626,-2.18275 2.456,-4.60773 4.22512,-5.59881 l 1.09287,-0.61225 v 1.02332 c 0,2.29353 -2.5128,5.46506 -4.59807,5.80345 -0.93208,0.15126 -0.93835,0.1459 -0.71992,-0.61571 z"
       id="path177" />
  </g>
</svg>
